<svg version="1.1" viewBox="0.0 0.0 960.0 720.0" fill="none" stroke="none" stroke-linecap="square" stroke-miterlimit="10" xmlns:xlink="http://www.w3.org/1999/xlink" xmlns="http://www.w3.org/2000/svg"><clipPath id="p.0"><path d="m0 0l960.0 0l0 720.0l-960.0 0l0 -720.0z" clip-rule="nonzero"/></clipPath><g clip-path="url(#p.0)"><path fill="#000000" fill-opacity="0.0" d="m0 0l960.0 0l0 720.0l-960.0 0z" fill-rule="evenodd"/><path fill="#2b2b2b" d="m465.00522 513.4091c8.587921 -0.101501465 34.837708 -1.4287109 43.519684 0c8.681946 1.4286499 15.825439 7.1434326 8.572205 8.572144c-7.253296 1.4287109 -42.075256 1.3272095 -52.09189 0c-10.016632 -1.3272095 -8.007874 -6.534546 -8.007874 -7.963257c0 -1.4287109 -0.5800476 -0.5074463 8.007874 -0.6088867z" fill-rule="evenodd"/><path stroke="#000000" stroke-width="4.0" stroke-linejoin="round" stroke-linecap="butt" d="m465.00522 513.4091c8.587921 -0.101501465 34.837708 -1.4287109 43.519684 0c8.681946 1.4286499 15.825439 7.1434326 8.572205 8.572144c-7.253296 1.4287109 -42.075256 1.3272095 -52.09189 0c-10.016632 -1.3272095 -8.007874 -6.534546 -8.007874 -7.963257c0 -1.4287109 -0.5800476 -0.5074463 8.007874 -0.6088867z" fill-rule="evenodd"/><path fill="#434343" d="m498.91217 369.6054c3.5713196 10.192017 -0.08441162 41.897186 0 62.322815c0.08444214 20.425629 0.42214966 47.58136 0.5065613 60.230988c0.08444214 12.649597 0.69641113 12.300964 0 15.6666565c-0.69641113 3.3656921 2.2624817 3.598877 -4.178467 4.527588c-6.4409485 0.9286499 -27.910309 1.7991943 -34.467194 1.0446167c-6.5568542 -0.7546387 -4.1198425 2.2033691 -4.8740234 -5.5722046c-0.7541504 -7.7756042 0.4072876 -19.458435 0.34909058 -41.08136c-0.058166504 -21.622925 -4.2375183 -72.66141 -0.69815063 -88.65616c3.5393677 -15.994751 14.707336 -5.898529 21.934387 -7.3123474c7.2270203 -1.4138184 17.856506 -11.36264 21.427795 -1.1705933z" fill-rule="evenodd"/><path stroke="#000000" stroke-width="4.0" stroke-linejoin="round" stroke-linecap="butt" d="m498.91217 369.6054c3.5713196 10.192017 -0.08441162 41.897186 0 62.322815c0.08444214 20.425629 0.42214966 47.58136 0.5065613 60.230988c0.08444214 12.649597 0.69641113 12.300964 0 15.6666565c-0.69641113 3.3656921 2.2624817 3.598877 -4.178467 4.527588c-6.4409485 0.9286499 -27.910309 1.7991943 -34.467194 1.0446167c-6.5568542 -0.7546387 -4.1198425 2.2033691 -4.8740234 -5.5722046c-0.7541504 -7.7756042 0.4072876 -19.458435 0.34909058 -41.08136c-0.058166504 -21.622925 -4.2375183 -72.66141 -0.69815063 -88.65616c3.5393677 -15.994751 14.707336 -5.898529 21.934387 -7.3123474c7.2270203 -1.4138184 17.856506 -11.36264 21.427795 -1.1705933z" fill-rule="evenodd"/><path fill="#2b2b2b" d="m457.00522 513.4091c8.587921 -0.101501465 34.837708 -1.4287109 43.519684 0c8.681976 1.4286499 15.825439 7.1434326 8.572174 8.572144c-7.2532654 1.4287109 -42.075226 1.3272095 -52.091858 0c-10.016632 -1.3272095 -8.007874 -6.534546 -8.007874 -7.963257c0 -1.4287109 -0.5800476 -0.5074463 8.007874 -0.6088867z" fill-rule="evenodd"/><path stroke="#000000" stroke-width="4.0" stroke-linejoin="round" stroke-linecap="butt" d="m457.00522 513.4091c8.587921 -0.101501465 34.837708 -1.4287109 43.519684 0c8.681976 1.4286499 15.825439 7.1434326 8.572174 8.572144c-7.2532654 1.4287109 -42.075226 1.3272095 -52.091858 0c-10.016632 -1.3272095 -8.007874 -6.534546 -8.007874 -7.963257c0 -1.4287109 -0.5800476 -0.5074463 8.007874 -0.6088867z" fill-rule="evenodd"/><path fill="#434343" d="m490.91217 369.6054c3.5713196 10.192017 -0.08441162 41.897186 0 62.322815c0.08444214 20.425629 0.42214966 47.58136 0.5065613 60.230988c0.08444214 12.649597 0.69641113 12.300964 0 15.6666565c-0.69641113 3.3656921 2.2624817 3.598877 -4.178467 4.527588c-6.4409485 0.9286499 -27.910309 1.7991943 -34.467194 1.0446167c-6.5568542 -0.7546387 -4.1198425 2.2033691 -4.8740234 -5.5722046c-0.7541504 -7.7756042 0.4072876 -19.458435 0.34909058 -41.08136c-0.058166504 -21.622925 -4.2375183 -72.66141 -0.69815063 -88.65616c3.5393677 -15.994751 14.707336 -5.898529 21.934387 -7.3123474c7.2270203 -1.4138184 17.856506 -11.36264 21.427795 -1.1705933z" fill-rule="evenodd"/><path stroke="#000000" stroke-width="4.0" stroke-linejoin="round" stroke-linecap="butt" d="m490.91217 369.6054c3.5713196 10.192017 -0.08441162 41.897186 0 62.322815c0.08444214 20.425629 0.42214966 47.58136 0.5065613 60.230988c0.08444214 12.649597 0.69641113 12.300964 0 15.6666565c-0.69641113 3.3656921 2.2624817 3.598877 -4.178467 4.527588c-6.4409485 0.9286499 -27.910309 1.7991943 -34.467194 1.0446167c-6.5568542 -0.7546387 -4.1198425 2.2033691 -4.8740234 -5.5722046c-0.7541504 -7.7756042 0.4072876 -19.458435 0.34909058 -41.08136c-0.058166504 -21.622925 -4.2375183 -72.66141 -0.69815063 -88.65616c3.5393677 -15.994751 14.707336 -5.898529 21.934387 -7.3123474c7.2270203 -1.4138184 17.856506 -11.36264 21.427795 -1.1705933z" fill-rule="evenodd"/><path fill="#cc0000" d="m499.6181 254.64984c1.2712097 2.701233 3.1916199 6.8477783 4.1784973 11.141724c0.98687744 4.293976 1.5686646 10.096252 1.7427673 14.62204c0.17410278 4.525818 -0.122924805 5.669739 -0.69815063 12.532837c-0.57525635 6.8630676 -2.294403 16.2594 -2.753296 28.64566c-0.4588623 12.386261 0 36.26114 0 45.671906c0 9.410767 1.9728699 8.471558 0 10.792664c-1.9728699 2.3210754 -6.3827515 2.727478 -11.83725 3.13385c-5.454529 0.40637207 -13.694244 -1.0437317 -20.88977 -0.6955261c-7.1955566 0.34820557 -17.58313 5.5122375 -22.283478 2.7847595c-4.700348 -2.727478 -4.8162537 -10.561676 -5.91864 -19.149597c-1.102356 -8.587921 -0.057281494 -20.772522 -0.6955261 -32.37796c-0.6382446 -11.605408 -2.7856445 -26.055115 -3.13385 -37.254578c-0.34820557 -11.199493 -0.34820557 -20.947968 1.0446167 -29.94226c1.3928223 -8.994324 4.178894 -19.323715 7.312317 -24.023636c3.1334229 -4.6999054 3.0743713 -5.684601 11.48819 -4.1758423c8.413849 1.5087433 31.920837 10.179352 38.99475 13.228348c7.073944 3.0489807 2.1776123 2.36438 3.448822 5.065613z" fill-rule="evenodd"/><path stroke="#000000" stroke-width="4.0" stroke-linejoin="round" stroke-linecap="butt" d="m499.6181 254.64984c1.2712097 2.701233 3.1916199 6.8477783 4.1784973 11.141724c0.98687744 4.293976 1.5686646 10.096252 1.7427673 14.62204c0.17410278 4.525818 -0.122924805 5.669739 -0.69815063 12.532837c-0.57525635 6.8630676 -2.294403 16.2594 -2.753296 28.64566c-0.4588623 12.386261 0 36.26114 0 45.671906c0 9.410767 1.9728699 8.471558 0 10.792664c-1.9728699 2.3210754 -6.3827515 2.727478 -11.83725 3.13385c-5.454529 0.40637207 -13.694244 -1.0437317 -20.88977 -0.6955261c-7.1955566 0.34820557 -17.58313 5.5122375 -22.283478 2.7847595c-4.700348 -2.727478 -4.8162537 -10.561676 -5.91864 -19.149597c-1.102356 -8.587921 -0.057281494 -20.772522 -0.6955261 -32.37796c-0.6382446 -11.605408 -2.7856445 -26.055115 -3.13385 -37.254578c-0.34820557 -11.199493 -0.34820557 -20.947968 1.0446167 -29.94226c1.3928223 -8.994324 4.178894 -19.323715 7.312317 -24.023636c3.1334229 -4.6999054 3.0743713 -5.684601 11.48819 -4.1758423c8.413849 1.5087433 31.920837 10.179352 38.99475 13.228348c7.073944 3.0489807 2.1776123 2.36438 3.448822 5.065613z" fill-rule="evenodd"/><path fill="#fff2cc" d="m421.6063 203.95276l0 0c0 -32.241257 26.143768 -58.37796 58.393707 -58.37796l0 0c15.486969 0 30.33963 6.150528 41.29059 17.09851c10.950928 10.947983 17.103088 25.796646 17.103088 41.27945l0 0c0 32.241257 -26.143738 58.37796 -58.393677 58.37796l0 0c-32.24994 0 -58.393707 -26.136703 -58.393707 -58.37796z" fill-rule="evenodd"/><path stroke="#000000" stroke-width="4.0" stroke-linejoin="round" stroke-linecap="butt" d="m421.6063 203.95276l0 0c0 -32.241257 26.143768 -58.37796 58.393707 -58.37796l0 0c15.486969 0 30.33963 6.150528 41.29059 17.09851c10.950928 10.947983 17.103088 25.796646 17.103088 41.27945l0 0c0 32.241257 -26.143738 58.37796 -58.393677 58.37796l0 0c-32.24994 0 -58.393707 -26.136703 -58.393707 -58.37796z" fill-rule="evenodd"/><path fill="#542c02" d="m438.1833 241.45035c0.8705139 -0.98643494 -1.5087585 -4.5852966 -2.0892334 -7.312332c-0.5805054 -2.7270355 -0.8713989 -5.3363953 -1.3937073 -9.049866c-0.52230835 -3.7134857 -1.2760315 -9.052933 -1.7401428 -13.230972c-0.46414185 -4.1780396 -2.4374695 -8.239731 -1.0446472 -11.83728c1.3928528 -3.5975494 7.834656 -9.979874 9.401581 -9.748032c1.566925 0.2318573 -2.8433838 11.255478 0 11.139114c2.8434143 -0.116363525 12.998688 -9.342087 17.060364 -11.837265c4.0617065 -2.4951935 6.14917 -3.8302765 7.309723 -3.1338654c1.160553 0.69641113 -1.7970276 7.5441895 -0.34646606 7.312332c1.450592 -0.23184204 4.698181 -5.9763794 9.049866 -8.7034c4.351715 -2.7270355 14.21698 -8.007004 17.060394 -7.658798c2.8433838 0.34820557 -2.6111145 8.587494 0 9.748032c2.611084 1.1605377 11.024475 -2.610672 15.6666565 -2.7847748c4.6421814 -0.17410278 10.909424 1.1019135 12.18634 1.7401581c1.2769165 0.63822937 -5.9177246 1.7410278 -4.5249023 2.0892334c1.3928223 0.34820557 8.87793 -1.2764587 12.881836 0c4.0039673 1.2764587 7.6601562 4.75766 11.141785 7.658798c3.4816284 2.9011383 8.181519 10.212158 9.747986 9.748032c1.5665283 -0.46414185 1.1015015 -8.297028 -0.34906006 -12.532806c-1.4505615 -4.235794 -8.470276 -12.011383 -8.354309 -12.881897c0.11590576 -0.8705139 8.353882 8.761597 9.049866 7.658798c0.6959839 -1.1027985 -3.1915894 -10.213913 -4.8740234 -14.275589c-1.6824341 -4.0616913 -2.4352417 -6.9033356 -5.220459 -10.094498c-2.7852173 -3.191162 -11.374451 -7.8919525 -11.490845 -9.05249c-0.11633301 -1.1605377 10.734497 2.9597473 10.792664 2.0892334c0.058166504 -0.8705139 -6.555969 -5.455368 -10.4436035 -7.312332c-3.8875732 -1.8569489 -9.342041 -3.191162 -12.881836 -3.8293915c-3.5398254 -0.63822937 -8.4729 0.5804901 -8.356964 0c0.11590576 -0.5804901 10.154816 -2.2642212 9.05246 -3.4829407c-1.102356 -1.2187195 -10.212128 -3.3070831 -15.6666565 -3.8293915c-5.4544983 -0.5223236 -14.913391 1.275589 -17.060364 0.6955261c-2.1469727 -0.5800476 5.1067505 -3.7117157 4.1784973 -4.1758423c-0.9282837 -0.46414185 -5.8022766 0.6369171 -9.748047 1.3910675c-3.9457703 0.75416565 -10.560791 2.0892487 -13.926514 3.1338654c-3.3656921 1.0446167 -5.6290283 3.5402374 -6.2677 3.13385c-0.6386719 -0.40638733 3.3639526 -5.688095 2.4356995 -5.572174c-0.9282837 0.11592102 -4.697754 3.13385 -8.00528 6.2677155c-3.307495 3.1338654 -8.938293 11.20079 -11.839874 12.535431c-2.9015808 1.3346405 -4.061249 -4.817581 -5.5695496 -4.5275574c-1.5083313 0.2900238 -2.2038574 3.3083954 -3.4803162 6.2677155c-1.2764893 2.95932 -2.6697388 7.0201263 -4.1784973 11.48819c-1.508728 4.4680634 -3.132965 13.173233 -4.873993 15.320206c-1.7410583 2.146988 -4.5275574 -4.1789093 -5.5722046 -2.4383087c-1.0446167 1.7405853 -0.7536926 8.181534 -0.6955261 12.881882c0.05819702 4.700348 1.6251221 13.115051 1.0446167 15.320206c-0.58047485 2.2051697 -4.3534546 -3.9461823 -4.5275574 -2.0892334c-0.17410278 1.8569489 1.4518738 9.2270355 3.4829407 13.230972c2.031067 4.003937 6.0923157 7.601486 8.7034 10.792648c2.6111145 3.191162 4.584015 6.72966 6.963257 8.35434c2.3792725 1.6246643 6.4418335 2.380127 7.3123474 1.393692z" fill-rule="evenodd"/><path stroke="#000000" stroke-width="4.0" stroke-linejoin="round" stroke-linecap="butt" d="m438.1833 241.45035c0.8705139 -0.98643494 -1.5087585 -4.5852966 -2.0892334 -7.312332c-0.5805054 -2.7270355 -0.8713989 -5.3363953 -1.3937073 -9.049866c-0.52230835 -3.7134857 -1.2760315 -9.052933 -1.7401428 -13.230972c-0.46414185 -4.1780396 -2.4374695 -8.239731 -1.0446472 -11.83728c1.3928528 -3.5975494 7.834656 -9.979874 9.401581 -9.748032c1.566925 0.2318573 -2.8433838 11.255478 0 11.139114c2.8434143 -0.116363525 12.998688 -9.342087 17.060364 -11.837265c4.0617065 -2.4951935 6.14917 -3.8302765 7.309723 -3.1338654c1.160553 0.69641113 -1.7970276 7.5441895 -0.34646606 7.312332c1.450592 -0.23184204 4.698181 -5.9763794 9.049866 -8.7034c4.351715 -2.7270355 14.21698 -8.007004 17.060394 -7.658798c2.8433838 0.34820557 -2.6111145 8.587494 0 9.748032c2.611084 1.1605377 11.024475 -2.610672 15.6666565 -2.7847748c4.6421814 -0.17410278 10.909424 1.1019135 12.18634 1.7401581c1.2769165 0.63822937 -5.9177246 1.7410278 -4.5249023 2.0892334c1.3928223 0.34820557 8.87793 -1.2764587 12.881836 0c4.0039673 1.2764587 7.6601562 4.75766 11.141785 7.658798c3.4816284 2.9011383 8.181519 10.212158 9.747986 9.748032c1.5665283 -0.46414185 1.1015015 -8.297028 -0.34906006 -12.532806c-1.4505615 -4.235794 -8.470276 -12.011383 -8.354309 -12.881897c0.11590576 -0.8705139 8.353882 8.761597 9.049866 7.658798c0.6959839 -1.1027985 -3.1915894 -10.213913 -4.8740234 -14.275589c-1.6824341 -4.0616913 -2.4352417 -6.9033356 -5.220459 -10.094498c-2.7852173 -3.191162 -11.374451 -7.8919525 -11.490845 -9.05249c-0.11633301 -1.1605377 10.734497 2.9597473 10.792664 2.0892334c0.058166504 -0.8705139 -6.555969 -5.455368 -10.4436035 -7.312332c-3.8875732 -1.8569489 -9.342041 -3.191162 -12.881836 -3.8293915c-3.5398254 -0.63822937 -8.4729 0.5804901 -8.356964 0c0.11590576 -0.5804901 10.154816 -2.2642212 9.05246 -3.4829407c-1.102356 -1.2187195 -10.212128 -3.3070831 -15.6666565 -3.8293915c-5.4544983 -0.5223236 -14.913391 1.275589 -17.060364 0.6955261c-2.1469727 -0.5800476 5.1067505 -3.7117157 4.1784973 -4.1758423c-0.9282837 -0.46414185 -5.8022766 0.6369171 -9.748047 1.3910675c-3.9457703 0.75416565 -10.560791 2.0892487 -13.926514 3.1338654c-3.3656921 1.0446167 -5.6290283 3.5402374 -6.2677 3.13385c-0.6386719 -0.40638733 3.3639526 -5.688095 2.4356995 -5.572174c-0.9282837 0.11592102 -4.697754 3.13385 -8.00528 6.2677155c-3.307495 3.1338654 -8.938293 11.20079 -11.839874 12.535431c-2.9015808 1.3346405 -4.061249 -4.817581 -5.5695496 -4.5275574c-1.5083313 0.2900238 -2.2038574 3.3083954 -3.4803162 6.2677155c-1.2764893 2.95932 -2.6697388 7.0201263 -4.1784973 11.48819c-1.508728 4.4680634 -3.132965 13.173233 -4.873993 15.320206c-1.7410583 2.146988 -4.5275574 -4.1789093 -5.5722046 -2.4383087c-1.0446167 1.7405853 -0.7536926 8.181534 -0.6955261 12.881882c0.05819702 4.700348 1.6251221 13.115051 1.0446167 15.320206c-0.58047485 2.2051697 -4.3534546 -3.9461823 -4.5275574 -2.0892334c-0.17410278 1.8569489 1.4518738 9.2270355 3.4829407 13.230972c2.031067 4.003937 6.0923157 7.601486 8.7034 10.792648c2.6111145 3.191162 4.584015 6.72966 6.963257 8.35434c2.3792725 1.6246643 6.4418335 2.380127 7.3123474 1.393692z" fill-rule="evenodd"/><path fill="#000000" d="m514.7884 198.27893c-1.1605225 4.758087 -1.1605225 24.372269 0 29.24672c1.1605225 4.8744507 5.8027344 4.758087 6.963257 0c1.1605225 -4.7581024 1.1605225 -23.674103 0 -28.548569c-1.1605225 -4.8744507 -5.8027344 -5.456253 -6.963257 -0.69815063z" fill-rule="evenodd"/><path stroke="#000000" stroke-width="4.0" stroke-linejoin="round" stroke-linecap="butt" d="m514.7884 198.27893c-1.1605225 4.758087 -1.1605225 24.372269 0 29.24672c1.1605225 4.8744507 5.8027344 4.758087 6.963257 0c1.1605225 -4.7581024 1.1605225 -23.674103 0 -28.548569c-1.1605225 -4.8744507 -5.8027344 -5.456253 -6.963257 -0.69815063z" fill-rule="evenodd"/><path fill="#000000" fill-opacity="0.0" d="m518.60986 249.80669c-1.6828613 -0.23184204 -6.847351 -0.86875916 -10.097137 -1.3910675c-3.2497864 -0.52230835 -7.834656 -1.4523163 -9.401581 -1.7427826" fill-rule="evenodd"/><path stroke="#000000" stroke-width="1.0" stroke-linejoin="round" stroke-linecap="butt" d="m518.60986 249.80669c-1.6828613 -0.23184204 -6.847351 -0.86875916 -10.097137 -1.3910675c-3.2497864 -0.52230835 -7.834656 -1.4523163 -9.401581 -1.7427826" fill-rule="evenodd"/><path fill="#783f04" d="m429.47922 232.74611c-2.3210754 -3.0175018 -9.575684 -11.43045 -10.4461975 -13.577423c-0.8705139 -2.146988 5.2812805 4.1771545 5.223114 0.6955261c-0.05819702 -3.4816284 -4.70166 -16.595352 -5.572174 -21.585297c-0.87054443 -4.9899445 -0.28961182 -7.541992 0.34906006 -8.354324c0.6386719 -0.8123474 2.0323792 4.93132 3.4829407 3.4803162c1.4505615 -1.4510193 3.1316833 -6.5577545 5.2204895 -12.186356c2.0887756 -5.6286163 5.51355 -18.51007 7.312317 -21.585312c1.7987976 -3.075241 2.0297546 3.36615 3.4803162 3.1338654c1.4505615 -0.23228455 2.7279053 -1.6841583 5.223114 -4.5275574c2.4951782 -2.843399 8.123352 -11.372269 9.748016 -12.532806c1.6246643 -1.160553 -2.0892334 6.033676 0 5.5695496c2.0892334 -0.4641266 8.589233 -6.439636 12.535431 -8.354324c3.9461975 -1.9147034 9.458893 -3.2497864 11.141754 -3.1338654c1.6828308 0.11592102 -3.2493591 3.481186 -1.0446472 3.8293915c2.2047424 0.34820557 9.804901 -1.450119 14.27298 -1.7401581c4.4680786 -0.2900238 10.85257 -0.69641113 12.535431 0c1.6828613 0.6964264 -3.3665771 2.9597626 -2.438324 4.178482c0.9282532 1.2187195 4.062134 2.205597 8.007874 3.1338654c3.9457703 0.9282532 13.63559 1.5656128 15.6666565 2.4356842c2.031067 0.87008667 -3.654419 1.6242371 -3.4802856 2.78479c0.17407227 1.1605377 1.8556519 1.8573914 4.5249023 4.178467c2.6693115 2.3210907 8.879272 6.9628143 11.490845 9.748032c2.6115112 2.7852173 4.2366333 5.802719 4.178467 6.963257c-0.058166504 1.1605377 -3.8311768 -1.451004 -4.527588 0c-0.69641113 1.451004 -1.0437012 5.514435 0.3491211 8.706039c1.3928223 3.1916046 8.936584 10.559921 8.007874 10.443573c-0.92871094 -0.116363525 -10.09845 -9.284775 -13.580078 -11.141739c-3.4816284 -1.8569489 -4.0021973 0.5800476 -7.3096924 0c-3.3075562 -0.5800476 -8.415588 -3.0161896 -12.535431 -3.4803162c-4.119873 -0.4641266 -10.09494 1.7983398 -12.183746 0.6955414c-2.0887756 -1.1027985 1.6819763 -5.8617706 -0.34906006 -7.312332c-2.031067 -1.4505768 -7.020996 -3.0161896 -11.83728 -1.3910828c-4.816284 1.6251068 -13.868774 9.923447 -17.060364 11.141739c-3.1915894 1.218277 0.17367554 -4.122055 -2.0892334 -3.8320312c-2.262909 0.29003906 -7.774292 3.134735 -11.48819 5.5721893c-3.7139282 2.437439 -8.938324 9.05249 -10.795288 9.05249c-1.8569641 0 1.7423401 -8.007874 -0.34646606 -9.05249c-2.0887756 -1.0446167 -9.22702 1.1019135 -12.18634 2.7847748c-2.95932 1.6828461 -4.815399 2.786087 -5.5695496 7.312332c-0.7541504 4.526245 0.116363525 12.765961 1.0446167 19.845139c0.9282532 7.079178 4.35083 19.61287 4.524933 22.629929c0.17410278 3.0170593 -1.1592407 -1.5100555 -3.4803162 -4.5275574z" fill-rule="evenodd"/><path fill="#cfe2f3" d="m453.0288 286.83984c-6.8180237 -2.0021973 -4.8158264 -13.63736 0 -16.364838c4.8158264 -2.727478 22.076996 -2.0021973 28.89502 0c6.8180237 2.0021973 16.828949 9.285645 12.013123 12.013123c-4.815857 2.727478 -34.09012 6.3539124 -40.908142 4.351715z" fill-rule="evenodd"/><path stroke="#000000" stroke-width="4.0" stroke-linejoin="round" stroke-linecap="butt" d="m453.0288 286.83984c-6.8180237 -2.0021973 -4.8158264 -13.63736 0 -16.364838c4.8158264 -2.727478 22.076996 -2.0021973 28.89502 0c6.8180237 2.0021973 16.828949 9.285645 12.013123 12.013123c-4.815857 2.727478 -34.09012 6.3539124 -40.908142 4.351715z" fill-rule="evenodd"/></g></svg>