<svg version="1.1" viewBox="0.0 0.0 298.0551181102362 347.9763779527559" fill="none" stroke="none" stroke-linecap="square" stroke-miterlimit="10" xmlns:xlink="http://www.w3.org/1999/xlink" xmlns="http://www.w3.org/2000/svg"><clipPath id="p.0"><path d="m0 0l298.0551 0l0 347.97638l-298.0551 0l0 -347.97638z" clip-rule="nonzero"/></clipPath><g clip-path="url(#p.0)"><path fill="#000000" fill-opacity="0.0" d="m0 0l298.0551 0l0 347.97638l-298.0551 0z" fill-rule="evenodd"/><path fill="#2b2b2b" d="m131.95981 337.6211c6.662506 -0.07873535 27.027084 -1.1083984 33.762573 0c6.7354736 1.1083679 12.27739 5.5419006 6.650299 6.650299c-5.6271057 1.1083679 -32.641983 1.0296326 -40.412872 0c-7.770897 -1.0296631 -6.212509 -5.069519 -6.212509 -6.177887c0 -1.1083984 -0.45000458 -0.39367676 6.212509 -0.4724121z" fill-rule="evenodd"/><path stroke="#000000" stroke-width="4.0" stroke-linejoin="round" stroke-linecap="butt" d="m131.95981 337.6211c6.662506 -0.07873535 27.027084 -1.1083984 33.762573 0c6.7354736 1.1083679 12.27739 5.5419006 6.650299 6.650299c-5.6271057 1.1083679 -32.641983 1.0296326 -40.412872 0c-7.770897 -1.0296631 -6.212509 -5.069519 -6.212509 -6.177887c0 -1.1083984 -0.45000458 -0.39367676 6.212509 -0.4724121z" fill-rule="evenodd"/><path fill="#434343" d="m158.26476 226.05508c2.7706146 7.9069824 -0.06550598 32.503845 0 48.350037c0.06549072 15.846222 0.32748413 36.913635 0.3929901 46.727203c0.06549072 9.813568 0.54026794 9.543091 0 12.154205c-0.5402832 2.6111145 1.7552185 2.7919922 -3.2416687 3.5124817c-4.996887 0.720459 -21.652832 1.395813 -26.73964 0.8103943c-5.0868225 -0.5853882 -3.1961899 1.7094116 -3.7812653 -4.322876c-0.5850754 -6.032318 0.31595612 -15.095856 0.27082062 -31.870941c-0.045143127 -16.775055 -3.2874832 -56.370712 -0.54164124 -68.77945c2.7458496 -12.408722 11.4099655 -4.576065 17.0167 -5.6729126c5.606735 -1.0968323 13.853088 -8.81514 16.623703 -0.9081421z" fill-rule="evenodd"/><path stroke="#000000" stroke-width="4.0" stroke-linejoin="round" stroke-linecap="butt" d="m158.26476 226.05508c2.7706146 7.9069824 -0.06550598 32.503845 0 48.350037c0.06549072 15.846222 0.32748413 36.913635 0.3929901 46.727203c0.06549072 9.813568 0.54026794 9.543091 0 12.154205c-0.5402832 2.6111145 1.7552185 2.7919922 -3.2416687 3.5124817c-4.996887 0.720459 -21.652832 1.395813 -26.73964 0.8103943c-5.0868225 -0.5853882 -3.1961899 1.7094116 -3.7812653 -4.322876c-0.5850754 -6.032318 0.31595612 -15.095856 0.27082062 -31.870941c-0.045143127 -16.775055 -3.2874832 -56.370712 -0.54164124 -68.77945c2.7458496 -12.408722 11.4099655 -4.576065 17.0167 -5.6729126c5.606735 -1.0968323 13.853088 -8.81514 16.623703 -0.9081421z" fill-rule="evenodd"/><path fill="#000000" fill-opacity="0.546" d="m155.83972 226.05508c2.7706146 7.9069824 -0.06549072 32.503845 0 48.350037c0.06550598 15.846222 0.3274994 36.913635 0.3929901 46.727203c0.06550598 9.813568 0.5402832 9.543091 0 12.154205c-0.54026794 2.6111145 1.7552338 2.7919922 -3.2416534 3.5124817c-4.996887 0.720459 -21.652832 1.395813 -26.739655 0.8103943c-5.086815 -0.5853882 -3.1961823 1.7094116 -3.7812576 -4.322876c-0.5850754 -6.032318 0.31595612 -15.095856 0.270813 -31.870941c-0.045135498 -16.775055 -3.2874756 -56.370712 -0.5416336 -68.77945c2.7458496 -12.408722 11.409958 -4.576065 17.016693 -5.6729126c5.606735 -1.0968323 13.853088 -8.81514 16.623703 -0.9081421z" fill-rule="evenodd"/><path fill="#2b2b2b" d="m125.75318 337.6211c6.6625137 -0.07873535 27.027092 -1.1083984 33.762566 0c6.735489 1.1083679 12.27739 5.5419006 6.650299 6.650299c-5.6270905 1.1083679 -32.641968 1.0296326 -40.412865 0c-7.770897 -1.0296631 -6.212509 -5.069519 -6.212509 -6.177887c0 -1.1083984 -0.45000458 -0.39367676 6.212509 -0.4724121z" fill-rule="evenodd"/><path stroke="#000000" stroke-width="4.0" stroke-linejoin="round" stroke-linecap="butt" d="m125.75318 337.6211c6.6625137 -0.07873535 27.027092 -1.1083984 33.762566 0c6.735489 1.1083679 12.27739 5.5419006 6.650299 6.650299c-5.6270905 1.1083679 -32.641968 1.0296326 -40.412865 0c-7.770897 -1.0296631 -6.212509 -5.069519 -6.212509 -6.177887c0 -1.1083984 -0.45000458 -0.39367676 6.212509 -0.4724121z" fill-rule="evenodd"/><path fill="#434343" d="m152.05812 226.05508c2.77063 7.9069824 -0.06549072 32.503845 0 48.350037c0.06550598 15.846222 0.3274994 36.913635 0.3929901 46.727203c0.06550598 9.813568 0.5402832 9.543091 0 12.154205c-0.54026794 2.6111145 1.7552338 2.7919922 -3.2416534 3.5124817c-4.996887 0.720459 -21.652832 1.395813 -26.739647 0.8103943c-5.0868225 -0.5853882 -3.1961899 1.7094116 -3.7812653 -4.322876c-0.5850754 -6.032318 0.31595612 -15.095856 0.27082062 -31.870941c-0.045143127 -16.775055 -3.2874832 -56.370712 -0.54164124 -68.77945c2.7458496 -12.408722 11.409958 -4.576065 17.016693 -5.6729126c5.606735 -1.0968323 13.853088 -8.81514 16.623703 -0.9081421z" fill-rule="evenodd"/><path stroke="#000000" stroke-width="4.0" stroke-linejoin="round" stroke-linecap="butt" d="m152.05812 226.05508c2.77063 7.9069824 -0.06549072 32.503845 0 48.350037c0.06550598 15.846222 0.3274994 36.913635 0.3929901 46.727203c0.06550598 9.813568 0.5402832 9.543091 0 12.154205c-0.54026794 2.6111145 1.7552338 2.7919922 -3.2416534 3.5124817c-4.996887 0.720459 -21.652832 1.395813 -26.739647 0.8103943c-5.0868225 -0.5853882 -3.1961899 1.7094116 -3.7812653 -4.322876c-0.5850754 -6.032318 0.31595612 -15.095856 0.27082062 -31.870941c-0.045143127 -16.775055 -3.2874832 -56.370712 -0.54164124 -68.77945c2.7458496 -12.408722 11.409958 -4.576065 17.016693 -5.6729126c5.606735 -1.0968323 13.853088 -8.81514 16.623703 -0.9081421z" fill-rule="evenodd"/><path fill="#cc0000" d="m158.81194 136.86984c0.98620605 2.0956116 2.4760437 5.3125 3.2416534 8.643753c0.765625 3.331253 1.21698 7.832657 1.3520508 11.3437805c0.1350708 3.5111237 -0.09535217 4.398575 -0.541626 9.722961c-0.4462738 5.3243713 -1.7799988 12.614044 -2.1360016 22.223312c-0.3560028 9.609253 0 28.131393 0 35.432266c0 7.300873 1.5305634 6.572235 0 8.37294c-1.5305634 1.8006897 -4.9517517 2.1159668 -9.18335 2.431244c-4.231613 0.3152771 -10.623978 -0.80973816 -16.206284 -0.53959656c-5.5822906 0.2701416 -13.640976 4.2763977 -17.287506 2.160431c-3.6465378 -2.115982 -3.7364655 -8.193756 -4.5916824 -14.856262c-0.85520935 -6.6625214 -0.044456482 -16.115326 -0.53959656 -25.11882c-0.49514008 -9.003494 -2.16111 -20.213562 -2.431244 -28.902115c-0.2701416 -8.688553 -0.2701416 -16.25142 0.81040955 -23.229202c1.0805588 -6.977783 3.2420044 -14.991333 5.6729126 -18.637527c2.4309082 -3.6461868 2.3850937 -4.4101105 8.912537 -3.239624c6.527443 1.1704865 24.764168 7.8971405 30.252129 10.262558c5.487961 2.3654022 1.6893768 1.8342896 2.6755981 3.9299011z" fill-rule="evenodd"/><path stroke="#000000" stroke-width="4.0" stroke-linejoin="round" stroke-linecap="butt" d="m158.81194 136.86984c0.98620605 2.0956116 2.4760437 5.3125 3.2416534 8.643753c0.765625 3.331253 1.21698 7.832657 1.3520508 11.3437805c0.1350708 3.5111237 -0.09535217 4.398575 -0.541626 9.722961c-0.4462738 5.3243713 -1.7799988 12.614044 -2.1360016 22.223312c-0.3560028 9.609253 0 28.131393 0 35.432266c0 7.300873 1.5305634 6.572235 0 8.37294c-1.5305634 1.8006897 -4.9517517 2.1159668 -9.18335 2.431244c-4.231613 0.3152771 -10.623978 -0.80973816 -16.206284 -0.53959656c-5.5822906 0.2701416 -13.640976 4.2763977 -17.287506 2.160431c-3.6465378 -2.115982 -3.7364655 -8.193756 -4.5916824 -14.856262c-0.85520935 -6.6625214 -0.044456482 -16.115326 -0.53959656 -25.11882c-0.49514008 -9.003494 -2.16111 -20.213562 -2.431244 -28.902115c-0.2701416 -8.688553 -0.2701416 -16.25142 0.81040955 -23.229202c1.0805588 -6.977783 3.2420044 -14.991333 5.6729126 -18.637527c2.4309082 -3.6461868 2.3850937 -4.4101105 8.912537 -3.239624c6.527443 1.1704865 24.764168 7.8971405 30.252129 10.262558c5.487961 2.3654022 1.6893768 1.8342896 2.6755981 3.9299011z" fill-rule="evenodd"/><path fill="#fff2cc" d="m98.28993 97.53887l0 0c0 -25.013718 20.284676 -45.291336 45.307083 -45.291336l0 0c12.01619 0 23.540222 4.7717514 32.036957 13.265526c8.496719 8.493774 13.270126 20.013802 13.270126 32.02581l0 0c0 25.013718 -20.284668 45.291344 -45.307083 45.291344l0 0c-25.022408 0 -45.307083 -20.277626 -45.307083 -45.291344z" fill-rule="evenodd"/><path stroke="#000000" stroke-width="4.0" stroke-linejoin="round" stroke-linecap="butt" d="m98.28993 97.53887l0 0c0 -25.013718 20.284676 -45.291336 45.307083 -45.291336l0 0c12.01619 0 23.540222 4.7717514 32.036957 13.265526c8.496719 8.493774 13.270126 20.013802 13.270126 32.02581l0 0c0 25.013718 -20.284668 45.291344 -45.307083 45.291344l0 0c-25.022408 0 -45.307083 -20.277626 -45.307083 -45.291344z" fill-rule="evenodd"/><path fill="#542c02" d="m111.15008 126.62755c0.6753464 -0.7652817 -1.1704865 -3.5572815 -1.6208344 -5.6729126c-0.45034027 -2.115631 -0.6760254 -4.1399765 -1.0812302 -7.0208893c-0.40520477 -2.8809128 -0.98994446 -7.023262 -1.3500137 -10.264587c-0.36006927 -3.2413177 -1.8909683 -6.392372 -0.8104172 -9.18335c1.0805588 -2.790985 6.0781174 -7.7423935 7.2937393 -7.562523c1.2156296 0.17986298 -2.205902 8.731987 0 8.641716c2.2059097 -0.090270996 10.084389 -7.247589 13.2354355 -9.18335c3.1510468 -1.9357681 4.770523 -2.971527 5.670868 -2.4312515c0.9003601 0.5402756 -1.3941193 5.8527756 -0.2687683 5.6729126c1.125351 -0.1798706 3.6448212 -4.6364746 7.0208893 -6.7521057c3.3760529 -2.1156387 11.029526 -6.21183 13.235428 -5.941696c2.205902 0.2701416 -2.0256958 6.662178 0 7.562523c2.0256958 0.9003525 8.552795 -2.02536 12.154205 -2.160431c3.6013947 -0.13506317 8.463547 0.85487366 9.454163 1.3500137c0.99061584 0.4951477 -4.5910034 1.3507004 -3.510437 1.6208344c1.0805511 0.2701416 6.887512 -0.99028015 9.993759 0c3.1062622 0.99028015 5.9427185 3.6909866 8.643768 5.9416885c2.7010345 2.2507095 6.347229 7.9226 7.5625153 7.562523c1.2152863 -0.36006927 0.85453796 -6.4368286 -0.270813 -9.722946c-1.125351 -3.2861252 -6.571228 -9.318428 -6.4812927 -9.993774c0.0899353 -0.6753464 6.480957 6.797241 7.0208893 5.941696c0.53993225 -0.8555527 -2.4760437 -7.923958 -3.7812653 -11.075005c-1.3052216 -3.1510544 -1.889267 -5.3555984 -4.0500336 -7.8313065c-2.1607819 -2.4757042 -8.82431 -6.122574 -8.914581 -7.0229225c-0.090270996 -0.90034866 8.327805 2.296177 8.37294 1.6208305c0.045135498 -0.6753464 -5.086136 -4.2322845 -8.102127 -5.672909c-3.015976 -1.440628 -7.247589 -2.475708 -9.993759 -2.970848c-2.7461853 -0.49514008 -6.5732574 0.4503441 -6.4833374 0c0.0899353 -0.4503441 7.8781433 -1.7565804 7.022934 -2.7020645c-0.85520935 -0.94548416 -7.922592 -2.5656357 -12.154205 -2.9708443c-4.231598 -0.4052086 -11.569809 0.98960114 -13.235428 0.53959656c-1.6656342 -0.45000458 3.9618073 -2.8795547 3.2416534 -3.239624c-0.72013855 -0.3600731 -4.501404 0.49412155 -7.5625153 1.0791969c-3.0611267 0.58507156 -8.193069 1.6208305 -10.804184 2.431244c-2.6111145 0.8104172 -4.3670197 2.7465248 -4.8624954 2.4312477c-0.4954834 -0.31527328 2.6097488 -4.4128265 1.8896103 -4.322895c-0.7201462 0.08993149 -3.644493 2.4312477 -6.210472 4.8624954c-2.565979 2.4312477 -6.934349 8.689571 -9.185394 9.724987c-2.2510376 1.0354195 -3.150711 -3.7374802 -4.320854 -3.5124779c-1.1701508 0.22500229 -1.7097473 2.5666542 -2.7000275 4.8624916c-0.9902878 2.2958412 -2.0711823 5.446213 -3.2416687 8.912537c-1.1704865 3.4663315 -2.4305649 10.219795 -3.7812576 11.885422c-1.3506927 1.6656265 -3.5124817 -3.2420044 -4.322899 -1.8916473c-0.8104172 1.3503494 -0.58473206 6.3472366 -0.53959656 9.993767c0.045135498 3.6465302 1.2607574 10.174652 0.8104172 11.885422c-0.4503479 1.710762 -3.377411 -3.0614624 -3.5124817 -1.6208344c-0.1350708 1.440628 1.1263657 7.158333 2.7020645 10.264587c1.5756989 3.1062546 4.72641 5.897232 6.7521057 8.37294c2.0257034 2.4757004 3.5562592 5.220871 5.402092 6.4812927c1.8458328 1.2604141 4.997566 1.8465118 5.6729126 1.0812302z" fill-rule="evenodd"/><path stroke="#000000" stroke-width="4.0" stroke-linejoin="round" stroke-linecap="butt" d="m111.15008 126.62755c0.6753464 -0.7652817 -1.1704865 -3.5572815 -1.6208344 -5.6729126c-0.45034027 -2.115631 -0.6760254 -4.1399765 -1.0812302 -7.0208893c-0.40520477 -2.8809128 -0.98994446 -7.023262 -1.3500137 -10.264587c-0.36006927 -3.2413177 -1.8909683 -6.392372 -0.8104172 -9.18335c1.0805588 -2.790985 6.0781174 -7.7423935 7.2937393 -7.562523c1.2156296 0.17986298 -2.205902 8.731987 0 8.641716c2.2059097 -0.090270996 10.084389 -7.247589 13.2354355 -9.18335c3.1510468 -1.9357681 4.770523 -2.971527 5.670868 -2.4312515c0.9003601 0.5402756 -1.3941193 5.8527756 -0.2687683 5.6729126c1.125351 -0.1798706 3.6448212 -4.6364746 7.0208893 -6.7521057c3.3760529 -2.1156387 11.029526 -6.21183 13.235428 -5.941696c2.205902 0.2701416 -2.0256958 6.662178 0 7.562523c2.0256958 0.9003525 8.552795 -2.02536 12.154205 -2.160431c3.6013947 -0.13506317 8.463547 0.85487366 9.454163 1.3500137c0.99061584 0.4951477 -4.5910034 1.3507004 -3.510437 1.6208344c1.0805511 0.2701416 6.887512 -0.99028015 9.993759 0c3.1062622 0.99028015 5.9427185 3.6909866 8.643768 5.9416885c2.7010345 2.2507095 6.347229 7.9226 7.5625153 7.562523c1.2152863 -0.36006927 0.85453796 -6.4368286 -0.270813 -9.722946c-1.125351 -3.2861252 -6.571228 -9.318428 -6.4812927 -9.993774c0.0899353 -0.6753464 6.480957 6.797241 7.0208893 5.941696c0.53993225 -0.8555527 -2.4760437 -7.923958 -3.7812653 -11.075005c-1.3052216 -3.1510544 -1.889267 -5.3555984 -4.0500336 -7.8313065c-2.1607819 -2.4757042 -8.82431 -6.122574 -8.914581 -7.0229225c-0.090270996 -0.90034866 8.327805 2.296177 8.37294 1.6208305c0.045135498 -0.6753464 -5.086136 -4.2322845 -8.102127 -5.672909c-3.015976 -1.440628 -7.247589 -2.475708 -9.993759 -2.970848c-2.7461853 -0.49514008 -6.5732574 0.4503441 -6.4833374 0c0.0899353 -0.4503441 7.8781433 -1.7565804 7.022934 -2.7020645c-0.85520935 -0.94548416 -7.922592 -2.5656357 -12.154205 -2.9708443c-4.231598 -0.4052086 -11.569809 0.98960114 -13.235428 0.53959656c-1.6656342 -0.45000458 3.9618073 -2.8795547 3.2416534 -3.239624c-0.72013855 -0.3600731 -4.501404 0.49412155 -7.5625153 1.0791969c-3.0611267 0.58507156 -8.193069 1.6208305 -10.804184 2.431244c-2.6111145 0.8104172 -4.3670197 2.7465248 -4.8624954 2.4312477c-0.4954834 -0.31527328 2.6097488 -4.4128265 1.8896103 -4.322895c-0.7201462 0.08993149 -3.644493 2.4312477 -6.210472 4.8624954c-2.565979 2.4312477 -6.934349 8.689571 -9.185394 9.724987c-2.2510376 1.0354195 -3.150711 -3.7374802 -4.320854 -3.5124779c-1.1701508 0.22500229 -1.7097473 2.5666542 -2.7000275 4.8624916c-0.9902878 2.2958412 -2.0711823 5.446213 -3.2416687 8.912537c-1.1704865 3.4663315 -2.4305649 10.219795 -3.7812576 11.885422c-1.3506927 1.6656265 -3.5124817 -3.2420044 -4.322899 -1.8916473c-0.8104172 1.3503494 -0.58473206 6.3472366 -0.53959656 9.993767c0.045135498 3.6465302 1.2607574 10.174652 0.8104172 11.885422c-0.4503479 1.710762 -3.377411 -3.0614624 -3.5124817 -1.6208344c-0.1350708 1.440628 1.1263657 7.158333 2.7020645 10.264587c1.5756989 3.1062546 4.72641 5.897232 6.7521057 8.37294c2.0257034 2.4757004 3.5562592 5.220871 5.402092 6.4812927c1.8458328 1.2604141 4.997566 1.8465118 5.6729126 1.0812302z" fill-rule="evenodd"/><path fill="#000000" d="m170.5832 93.13643c-0.90034485 3.69133 -0.90034485 18.908005 0 22.689606c0.90034485 3.781601 4.5017395 3.69133 5.4020844 0c0.9003601 -3.69133 0.9003601 -18.366371 0 -22.147972c-0.90034485 -3.781601 -4.5017395 -4.2329636 -5.4020844 -0.5416336z" fill-rule="evenodd"/><path stroke="#000000" stroke-width="4.0" stroke-linejoin="round" stroke-linecap="butt" d="m170.5832 93.13643c-0.90034485 3.69133 -0.90034485 18.908005 0 22.689606c0.90034485 3.781601 4.5017395 3.69133 5.4020844 0c0.9003601 -3.69133 0.9003601 -18.366371 0 -22.147972c-0.90034485 -3.781601 -4.5017395 -4.2329636 -5.4020844 -0.5416336z" fill-rule="evenodd"/><path fill="#000000" fill-opacity="0.0" d="m173.54747 133.11276c-1.3055573 -0.1798706 -5.3121643 -0.673996 -7.8333435 -1.0792084c-2.5211792 -0.40519714 -6.0781097 -1.1266937 -7.2937317 -1.3520355" fill-rule="evenodd"/><path stroke="#000000" stroke-width="1.0" stroke-linejoin="round" stroke-linecap="butt" d="m173.54747 133.11276c-1.3055573 -0.1798706 -5.3121643 -0.673996 -7.8333435 -1.0792084c-2.5211792 -0.40519714 -6.0781097 -1.1266937 -7.2937317 -1.3520355" fill-rule="evenodd"/><path fill="#fff2cc" d="m125.90745 157.79218c-3.290535 10.08371 -0.72455597 47.89801 0 59.962616c0.72454834 12.064606 2.9925613 11.389603 4.347328 12.425018c1.3547668 1.0354156 2.475708 -6.1677094 3.7812653 -6.212509c1.3055573 -0.044799805 2.836792 6.348938 4.0520782 5.9437256c1.2152863 -0.40519714 2.114273 -8.239899 3.239624 -8.3749695c1.125351 -0.1350708 2.6121368 9.185059 3.5124817 7.56456c0.90034485 -1.6204987 1.7545471 -5.3128357 1.8896027 -17.287506c0.1350708 -11.974686 2.3912048 -45.557053 -1.0791931 -54.56053c-3.470398 -9.003494 -16.452652 -9.544113 -19.743187 0.53959656z" fill-rule="evenodd"/><path stroke="#000000" stroke-width="4.0" stroke-linejoin="round" stroke-linecap="butt" d="m125.90745 157.79218c-3.290535 10.08371 -0.72455597 47.89801 0 59.962616c0.72454834 12.064606 2.9925613 11.389603 4.347328 12.425018c1.3547668 1.0354156 2.475708 -6.1677094 3.7812653 -6.212509c1.3055573 -0.044799805 2.836792 6.348938 4.0520782 5.9437256c1.2152863 -0.40519714 2.114273 -8.239899 3.239624 -8.3749695c1.125351 -0.1350708 2.6121368 9.185059 3.5124817 7.56456c0.90034485 -1.6204987 1.7545471 -5.3128357 1.8896027 -17.287506c0.1350708 -11.974686 2.3912048 -45.557053 -1.0791931 -54.56053c-3.470398 -9.003494 -16.452652 -9.544113 -19.743187 0.53959656z" fill-rule="evenodd"/><path fill="#783f04" d="m104.397644 119.87491c-1.8006973 -2.340973 -7.42881 -8.867737 -8.1041565 -10.533371c-0.6753464 -1.6656265 4.0972137 3.2406464 4.0520782 0.5396042c-0.045135498 -2.7010498 -3.6475449 -12.874687 -4.322891 -16.74588c-0.6753464 -3.871193 -0.22466278 -5.851082 0.270813 -6.4812927c0.4954834 -0.63020325 1.5767136 3.8257217 2.7020645 2.700035c1.125351 -1.1256943 2.4295502 -5.0875015 4.050041 -9.454178c1.6204987 -4.3666687 4.27742 -14.3601 5.6729126 -16.745872c1.3954926 -2.3857727 1.5746765 2.6114502 2.7000275 2.431244c1.125351 -0.1802063 2.1163101 -1.306572 4.0520782 -3.5124779c1.9357681 -2.205906 6.302101 -8.822605 7.562523 -9.722954c1.2604218 -0.90034866 -1.6208267 4.680931 0 4.320862c1.6208344 -0.3600731 6.663536 -4.9958687 9.724998 -6.4812927c3.0614471 -1.4854202 7.338196 -2.5211792 8.643753 -2.4312477c1.3055573 0.0899353 -2.5208435 2.7007103 -0.8104248 2.970848c1.710434 0.2701378 7.6066437 -1.1250114 11.072968 -1.3500137c3.4663239 -0.22500229 8.419434 -0.5402794 9.724991 0c1.3055573 0.5402756 -2.611786 2.296177 -1.8916473 3.241661c0.72013855 0.94548416 3.1513977 1.7111053 6.212509 2.4312477c3.0611115 0.72014236 10.578506 1.2146072 12.154205 1.8896141c1.5756836 0.67500687 -2.8350983 1.2600784 -2.7000275 2.160427c0.13505554 0.90034866 1.4396057 1.4409676 3.510437 3.241665c2.0708313 1.8006973 6.8885345 5.4017563 8.914581 7.562523c2.0260315 2.1607666 3.286789 4.501747 3.2416534 5.402092c-0.045135498 0.9003525 -2.9721985 -1.1256866 -3.5124817 0c-0.54026794 1.1256943 -0.80973816 4.278099 0.27082825 6.7541428c1.0805511 2.4760437 6.9329834 8.192398 6.212494 8.102119c-0.72047424 -0.090270996 -7.8343506 -7.203125 -10.5354 -8.643753c-2.7010498 -1.440628 -3.104889 0.45000458 -5.670868 0c-2.565979 -0.45000458 -6.5288086 -2.3399582 -9.724991 -2.7000275c-3.1961823 -0.36006927 -7.83165 1.3951492 -9.452133 0.53959656c-1.6204987 -0.8555527 1.3048706 -4.5475616 -0.270813 -5.6729126c-1.5756989 -1.125351 -5.4468994 -2.3399506 -9.183365 -1.0791931c-3.7364655 1.2607574 -10.759384 7.6986084 -13.235428 8.643753c-2.4760437 0.94514465 0.1347351 -3.1978836 -1.6208344 -2.9728775c-1.7555542 0.22499847 -6.0312805 2.431923 -8.912537 4.322891c-2.8812485 1.890976 -6.934349 7.0229263 -8.374977 7.0229263c-1.4406204 0 1.3517151 -6.212509 -0.26877594 -7.0229263c-1.620491 -0.81040955 -7.158333 0.85487366 -9.454178 2.160431c-2.2958374 1.3055573 -3.7357788 2.1614532 -4.320854 5.6729126c-0.5850754 3.5114594 0.090270996 9.903839 0.8104172 15.395866c0.72013855 5.4920197 3.3753738 15.215652 3.510437 17.55629c0.1350708 2.3406372 -0.89933014 -1.1715088 -2.7000275 -3.5124817z" fill-rule="evenodd"/><path fill="#ffffff" d="m122.668274 161.84354c-5.289421 -1.553299 -3.7361298 -10.5798645 0 -12.695831c3.7361221 -2.115982 17.127335 -1.553299 22.416748 0c5.2894287 1.553299 13.055908 7.2038116 9.319778 9.319778c-3.7361145 2.1159668 -26.447105 4.929352 -31.736526 3.3760529z" fill-rule="evenodd"/><path stroke="#000000" stroke-width="4.0" stroke-linejoin="round" stroke-linecap="butt" d="m122.668274 161.84354c-5.289421 -1.553299 -3.7361298 -10.5798645 0 -12.695831c3.7361221 -2.115982 17.127335 -1.553299 22.416748 0c5.2894287 1.553299 13.055908 7.2038116 9.319778 9.319778c-3.7361145 2.1159668 -26.447105 4.929352 -31.736526 3.3760529z" fill-rule="evenodd"/></g></svg>